<?xml version="1.0" encoding="iso-8859-1"?>
<!-- Uploaded to: SVG Repo, www.svgrepo.com, Generator: SVG Repo Mixer Tools -->
<svg version="1.1" id="Layer_1" xmlns="http://www.w3.org/2000/svg" xmlns:xlink="http://www.w3.org/1999/xlink" 
	 viewBox="0 0 512 512" xml:space="preserve">
<path style="fill:#F24141;" d="M503.025,117.36v277.694c0,25.073-20.322,45.383-45.383,45.383H54.355
	c-25.061,0-45.383-20.31-45.383-45.383V154.066c0-25.073,20.322-45.383,45.383-45.383h57.327c23.074,0,45.706-6.355,65.405-18.359
	c19.711-11.992,42.343-18.347,65.417-18.347h215.138C482.703,71.977,503.025,92.299,503.025,117.36z"/>
<path style="fill:#F97D7D;" d="M457.642,71.977h-19.535c25.061,0,45.383,20.322,45.383,45.383v277.694
	c0,25.073-20.322,45.383-45.383,45.383h19.535c25.061,0,45.383-20.31,45.383-45.383V117.36
	C503.025,92.299,482.703,71.977,457.642,71.977z"/>
<g>
	<path style="fill:#F2D546;" d="M503.025,364.763v30.291c0,25.073-20.322,45.383-45.383,45.383H54.355
		c-25.061,0-45.383-20.31-45.383-45.383v-30.291H503.025z"/>
	<circle style="fill:#F2D546;" cx="255.996" cy="274.164" r="128.561"/>
</g>
<circle style="fill:#495E77;" cx="255.996" cy="274.164" r="82.867"/>
<path style="fill:#62788E;" d="M256,191.295c-6.929,0-13.656,0.863-20.09,2.465c36.059,8.981,62.78,41.566,62.78,80.404
	s-26.722,71.423-62.78,80.404c6.434,1.603,13.159,2.465,20.09,2.465c45.767,0,82.869-37.102,82.869-82.869
	S301.767,191.295,256,191.295z"/>
<path style="fill:#88E2DB;" d="M398.529,164.924h48.596c8.029,0,14.538-6.508,14.538-14.538v-23.151
	c0-8.029-6.509-14.538-14.538-14.538h-48.596c-8.029,0-14.538,6.508-14.538,14.538v23.151
	C383.991,158.415,390.499,164.924,398.529,164.924z"/>
<path style="fill:#B5F4EE;" d="M447.125,112.697h-21.542c8.029,0,14.538,6.508,14.538,14.538v23.151
	c0,8.029-6.508,14.538-14.538,14.538h21.542c8.029,0,14.538-6.509,14.538-14.538v-23.151
	C461.662,119.205,455.153,112.697,447.125,112.697z"/>
<g>
	<rect x="56.001" y="71.559" style="fill:#F2D546;" width="62.27" height="37.125"/>
	<circle style="fill:#F2D546;" cx="71.751" cy="307.543" r="28.122"/>
</g>
<circle style="fill:#62788E;" cx="224.64" cy="245.836" r="18.4"/>
<path style="fill:#F9E178;" d="M503.025,364.763v30.291c0,25.073-20.322,45.383-45.383,45.383h-19.532
	c25.061,0,45.383-20.31,45.383-45.383v-30.291H503.025z"/>
<path d="M256,366.008c50.644,0,91.845-41.201,91.845-91.845S306.644,182.318,256,182.318c-50.643,0-91.845,41.201-91.845,91.845
	C164.155,324.807,205.356,366.008,256,366.008z M256,200.27c40.744,0,73.893,33.148,73.893,73.893
	c0,40.744-33.148,73.893-73.893,73.893s-73.893-33.148-73.893-73.893C182.107,233.419,215.255,200.27,256,200.27z"/>
<path d="M398.529,103.721c-12.966,0-23.514,10.547-23.514,23.514v23.152c0,12.965,10.547,23.514,23.514,23.514h48.595
	c12.966,0,23.514-10.547,23.514-23.514v-23.152c0-12.965-10.547-23.514-23.514-23.514
	C447.124,103.721,398.529,103.721,398.529,103.721z M452.686,127.235v23.152c0,3.067-2.495,5.562-5.562,5.562H398.53
	c-3.067,0-5.562-2.494-5.562-5.562v-23.152c0-3.067,2.495-5.562,5.562-5.562h48.595
	C450.191,121.673,452.686,124.168,452.686,127.235z"/>
<path d="M34.653,307.545c0,20.456,16.643,37.099,37.099,37.099s37.099-16.642,37.099-37.099s-16.642-37.099-37.099-37.099
	S34.653,287.088,34.653,307.545z M90.897,307.545c0,10.557-8.588,19.146-19.146,19.146s-19.146-8.588-19.146-19.146
	s8.589-19.146,19.146-19.146S90.897,296.987,90.897,307.545z"/>
<path d="M512,184.651c0-4.957-4.018-8.976-8.976-8.976c-4.958,0-8.976,4.019-8.976,8.976v171.136h-49.053
	c-4.958,0-8.976,4.019-8.976,8.976c0,4.957,4.018,8.976,8.976,8.976h49.053v21.318c0,20.075-16.332,36.408-36.408,36.408H54.36
	c-20.075,0-36.408-16.333-36.408-36.408v-21.318h143.271c24.688,23.509,58.076,37.959,94.777,37.959s70.09-14.45,94.777-37.959
	h63.702c4.958,0,8.976-4.019,8.976-8.976c0-4.957-4.018-8.976-8.976-8.976h-47.855c16.902-22.847,26.911-51.087,26.911-81.624
	c0-75.838-61.698-137.536-137.534-137.536c-28.491,0-55.826,8.636-79.053,24.975c-4.055,2.852-5.029,8.452-2.177,12.507
	c2.853,4.055,8.453,5.029,12.507,2.177c20.185-14.2,43.949-21.706,68.723-21.706c65.938,0,119.582,53.644,119.582,119.583
	s-53.644,119.583-119.582,119.583c-65.939,0-119.583-53.644-119.583-119.583c0-27.822,9.764-54.915,27.492-76.29
	c3.164-3.815,2.637-9.475-1.179-12.639c-3.815-3.164-9.474-2.638-12.639,1.179c-20.395,24.588-31.626,55.752-31.626,87.751
	c0,30.536,10.009,58.777,26.911,81.624H17.952V154.063c0-20.075,16.333-36.408,36.408-36.408c0,0,65.444-0.11,66.165-0.297
	c21.632-1.422,42.64-8.039,61.233-19.362c18.305-11.147,39.309-17.04,60.741-17.04h215.14c20.075,0,36.408,16.333,36.408,36.408
	v37.367c0,4.957,4.018,8.976,8.976,8.976c4.958,0,8.976-4.019,8.976-8.976v-37.367c0-29.974-24.386-54.36-54.36-54.36H242.5
	c-24.726,0-48.959,6.798-70.079,19.659c-13.841,8.429-29.227,13.847-45.173,15.992V71.559c0-4.957-4.019-8.976-8.976-8.976H56.001
	c-4.957,0-8.976,4.019-8.976,8.976v28.654C20.51,103.806,0,126.578,0,154.063v240.993c0,29.974,24.386,54.36,54.36,54.36h403.28
	c29.974,0,54.36-24.385,54.36-54.36L512,184.651L512,184.651z M64.977,80.535h44.319v19.169H64.977V80.535z"/>
</svg>